<?xml version="1.0" standalone="no"?>
<!DOCTYPE svg PUBLIC "-//W3C//DTD SVG 20010904//EN"
 "http://www.w3.org/TR/2001/REC-SVG-20010904/DTD/svg10.dtd">
<svg version="1.0" xmlns="http://www.w3.org/2000/svg"
 width="700.000000pt" height="700.000000pt" viewBox="0 0 700.000000 700.000000"
 preserveAspectRatio="xMidYMid meet">
<metadata>
Created by potrace 1.14, written by Peter Selinger 2001-2017
</metadata>
<g transform="translate(0.000000,700.000000) scale(0.100000,-0.100000)"
fill="#000000" stroke="none">
<path d="M2700 6559 c-165 -18 -291 -156 -291 -319 -1 -70 5 -92 36 -156 44
-90 135 -156 237 -171 89 -14 307 -8 368 10 147 43 239 181 227 338 -11 136
-94 242 -224 284 -52 17 -252 25 -353 14z"/>
<path d="M4002 6558 c-122 -18 -221 -99 -265 -216 -24 -65 -18 -183 14 -247
35 -71 108 -139 177 -165 46 -18 82 -22 192 -24 175 -3 240 7 306 44 187 107
224 356 75 509 -52 54 -84 73 -150 91 -51 13 -274 18 -349 8z"/>
<path d="M1335 5566 c-119 -37 -199 -118 -230 -236 -41 -156 38 -313 193 -383
41 -19 67 -21 216 -23 126 -1 182 2 220 13 164 49 265 220 226 385 -25 104
-109 199 -208 237 -50 19 -361 24 -417 7z"/>
<path d="M2657 5569 c-120 -27 -216 -127 -241 -249 -31 -154 39 -297 181 -366
58 -29 59 -29 248 -29 186 1 191 1 246 28 114 55 181 159 185 287 4 134 -65
249 -184 307 -55 26 -64 27 -227 29 -93 1 -187 -3 -208 -7z"/>
<path d="M3975 5570 c-93 -22 -179 -91 -222 -178 -24 -49 -28 -69 -28 -142 0
-72 4 -93 27 -141 27 -54 87 -119 138 -148 49 -29 127 -39 291 -37 158 1 166
2 219 29 128 63 191 165 191 303 0 123 -74 235 -191 292 -53 25 -63 27 -225
28 -93 0 -183 -2 -200 -6z"/>
<path d="M5266 5563 c-92 -27 -156 -84 -207 -183 -35 -69 -33 -185 4 -265 39
-83 108 -146 189 -172 55 -18 85 -21 233 -19 160 1 173 3 226 28 257 119 258
477 3 595 -56 26 -67 28 -229 29 -125 1 -183 -2 -219 -13z"/>
<path d="M720 4589 c-187 -27 -309 -199 -276 -386 21 -114 104 -207 221 -248
61 -21 333 -25 405 -6 106 29 205 128 231 234 16 66 6 165 -22 224 -34 71
-104 136 -175 163 -50 19 -80 22 -199 24 -77 1 -160 -2 -185 -5z"/>
<path d="M2006 4583 c-65 -14 -148 -63 -183 -111 -52 -70 -66 -114 -67 -202
-1 -72 3 -94 25 -141 42 -90 134 -163 229 -184 19 -4 105 -8 190 -7 134 0 163
3 211 21 175 66 261 270 185 437 -46 99 -133 171 -232 190 -63 12 -293 10
-358 -3z"/>
<path d="M3360 4592 c-136 -14 -243 -106 -288 -248 -15 -47 -6 -153 17 -206
39 -91 137 -172 234 -194 34 -7 308 -8 343 0 107 23 195 90 238 181 68 142 18
326 -110 412 -62 42 -121 55 -269 56 -77 1 -151 1 -165 -1z"/>
<path d="M4637 4585 c-178 -36 -297 -223 -252 -397 33 -125 136 -223 255 -243
58 -10 305 -10 350 0 93 20 181 90 228 179 22 43 26 64 27 136 0 71 -4 94 -26
140 -40 86 -104 145 -191 176 -53 19 -312 25 -391 9z"/>
<path d="M5961 4588 c-102 -17 -199 -91 -242 -185 -30 -64 -37 -172 -15 -237
35 -102 108 -175 211 -211 39 -13 84 -17 205 -17 181 -1 241 12 312 66 202
154 156 477 -81 567 -47 17 -80 21 -202 23 -81 0 -165 -2 -188 -6z"/>
<path d="M275 3486 c-110 -35 -191 -105 -239 -206 -29 -61 -31 -72 -32 -185
-3 -470 162 -944 469 -1350 82 -108 280 -306 399 -398 154 -120 358 -238 531
-307 43 -18 57 -29 58 -44 0 -12 2 -30 4 -41 2 -11 6 -40 9 -65 11 -99 20
-138 47 -198 56 -125 198 -232 331 -248 29 -4 780 -7 1668 -7 1512 0 1619 1
1675 17 82 24 123 47 181 99 88 80 134 181 149 332 3 33 8 69 10 80 2 11 4 27
4 36 1 10 26 27 69 44 276 116 507 271 723 485 132 132 158 162 252 294 126
174 233 384 301 591 31 91 72 251 80 310 3 22 8 51 10 64 13 59 21 176 21 296
0 121 -2 134 -27 189 -49 102 -123 170 -225 205 -57 20 -88 20 -3243 20 -2546
0 -3193 -3 -3225 -13z"/>
</g>
</svg>
